<svg xmlns="http://www.w3.org/2000/svg" xmlns:xlink="http://www.w3.org/1999/xlink" width="512" height="512" viewBox="0 0 512 512">
  <defs>
    <clipPath id="clip-Web_1920_1">
      <rect width="512" height="512"/>
    </clipPath>
  </defs>
  <g id="Web_1920_1" data-name="Web 1920 – 1" clip-path="url(#clip-Web_1920_1)">
    <rect width="512" height="512" fill="#fff"/>
    <path id="Path_1" data-name="Path 1" d="M445.466,326.868a71.068,71.068,0,0,0-21.4-24.642c-3.891-2.594-7.782-4.539-11.024-7.133a31.611,31.611,0,0,0-7.133-2.594,36.563,36.563,0,0,1-7.782-2.594,57.069,57.069,0,0,1-9.727-3.242,90.856,90.856,0,0,1-23.345-8.43l-8.43-3.891a22.882,22.882,0,0,1-8.43-5.188c-2.594-1.945-5.188-4.539-7.782-6.485l-8.43-7.782c-3.242-3.891-6.485-7.782-8.43-12.321s-3.891-8.43-5.188-12.321c-4.539-10.376-7.782-20.752-8.43-32.424l-1.945-12.97c0-.648-.648-1.945-.648-3.242-.649-5.188-1.945-10.376-2.594-14.915,0-1.3-.648-2.594,0-3.891,1.3-4.539,3.891-9.727,7.782-12.97,6.485-5.188,13.618-10.376,21.4-13.618a51.7,51.7,0,0,0,10.376-5.188c5.836-3.242,11.024-6.485,16.212-9.727l11.024-9.079,2.594-2.594,3.242-3.891c4.539-3.891,7.133-9.079,11.024-12.97,4.539-8.43,10.376-16.212,14.267-25.291,3.891-9.727,7.782-20.1,9.727-30.479l.648-2.594c1.3-6.485,2.594-12.321,2.594-18.806,1.3-9.727.648-19.455-.649-29.182l-1.945-15.564c-.648-2.594-1.945-5.188-1.945-7.782.648-1.3-1.945-3.891-3.242-3.891s-1.945,1.3-2.594,2.594c-.648.648-.648,1.3-.648,2.594-2.594,8.43-7.782,14.915-14.267,21.4C388.4-11.642,385.8-9.7,383.859-7.1l-2.594,2.594L361.811,7.813a155.145,155.145,0,0,0-13.618,8.43,76.407,76.407,0,0,0-12.321,7.133,14.147,14.147,0,0,0-3.242,2.594c-1.3.648-1.945,1.945-3.242,2.594a78.236,78.236,0,0,0-15.564,13.618c-3.891,5.188-7.133,11.024-11.024,16.212-5.836,8.43-9.079,18.158-11.024,28.533-1.3,5.188-1.945,10.376-3.242,15.564-1.3,7.133-2.594,14.915-2.594,22.049v1.945c-.648-.648-1.3-.648-1.3-1.3a135.021,135.021,0,0,0-20.752-25.939l-23.345-22.7c-3.242-2.594-6.485-5.188-10.376-7.782-1.3-1.945-1.3-1.945,0-3.891,3.891-5.188,7.782-10.376,9.727-16.861,0-.648.649-1.3,1.3-1.945.648-3.242,1.945-5.836,2.594-8.43,1.3-2.594,1.3-5.836,1.945-8.43.649-3.242,1.945-6.485,1.945-9.727A121.6,121.6,0,0,0,248.326-7.1a125.93,125.93,0,0,0-1.3-15.564c-2.594-9.727-5.836-18.158-14.267-24.642-3.242-1.945-6.485-4.539-10.376-4.539a2.375,2.375,0,0,1-2.594-2.594,2.008,2.008,0,0,1-.648-1.3c-1.945-6.485-3.891-12.97-5.188-19.455-1.945-5.836-5.836-9.727-9.727-13.618s-9.727-3.242-14.915-2.594a26.025,26.025,0,0,0-10.376,5.188,20.272,20.272,0,0,0-7.133,5.836c-.648.649-1.3.649-1.3-.648a37.318,37.318,0,0,0-9.727-12.321,12.8,12.8,0,0,0-9.079-3.891h-8.43c-1.945.648-3.891.648-5.836,1.945-3.891,1.945-7.782,4.539-10.376,8.43a2.264,2.264,0,0,0-1.3.648v.648h-.648v-.648h.648c-.648-1.3-.648-2.594-1.3-3.891,0-3.242,1.3-6.485,2.594-9.727.648-2.594,1.945-4.539,5.188-4.539,2.594-.648,5.188-1.945,6.485-4.539a16.341,16.341,0,0,0,3.891-12.97,15.288,15.288,0,0,0-5.836-10.376c-8.43-5.188-16.861-1.3-20.752,6.485-3.242,7.133-.648,15.564,4.539,19.455,1.945,1.3,1.945,1.3.648,3.891-2.594,5.188-3.891,10.376-2.594,16.212a18.935,18.935,0,0,0,1.3,5.836,39.888,39.888,0,0,1,.648,8.43,23.04,23.04,0,0,0-1.3,6.485c.648,5.836.648,11.673,1.3,16.861v3.242a.635.635,0,0,1-.648.648h-.648c-2.594-2.594-5.188-5.836-8.43-7.782-3.891-3.891-6.485-7.782-7.133-12.321l-1.945-11.024c-.648-6.485-1.3-12.321-5.188-17.509-.648-1.3,0-1.945,0-2.594,3.242-7.133,1.945-12.97-1.945-19.455,0-.648-1.3-1.3-1.945-1.945-5.188-2.594-11.024-3.891-16.861.648-1.945,1.945-4.539,3.891-4.539,6.485a15.807,15.807,0,0,0,0,7.782C71.938-94,79.719-88.812,87.5-90.109h1.3c1.3-.649,1.945,0,2.594,1.3a15.494,15.494,0,0,1,3.242,9.079l1.945,12.97c.648,7.782,4.539,14.267,9.727,19.455a28.2,28.2,0,0,1,4.539,3.891l1.945,1.945v1.3l-3.242,1.3c-.648,1.3-1.945,1.3-3.242.648-.648-.648-1.3-1.3-1.945-1.3a70.28,70.28,0,0,0-12.321-5.188c-3.891-1.3-7.782-1.3-12.321-1.945-8.43-.648-14.915-5.188-19.455-12.321-1.3-1.945-1.945-3.242-.648-5.188q3.891-5.836,1.945-13.618c-1.945-5.188-5.188-9.727-12.97-11.024C43.4-89.46,36.919-86.218,34.325-81.03c-3.242,5.836-2.594,11.673.648,16.861s7.782,7.782,13.618,7.133c3.242-.648,5.188,0,6.485,2.594l2.594,2.594c5.188,7.133,12.321,10.376,20.752,11.673a61.5,61.5,0,0,1,14.915,3.242c3.242.648,6.485,2.594,9.727,4.539a1.243,1.243,0,0,1,.648,1.946,20.285,20.285,0,0,1-3.242,6.485c0,.648-.648.648-1.3.648C93.986-25.26,88.8-27.206,83.61-27.854c-6.485-.649-12.97,0-18.806,3.242a9.217,9.217,0,0,1-3.891,1.3c-5.188.648-9.727,0-14.915-.648-2.594-.648-4.539-1.3-4.539-5.188-1.3-5.188-3.891-10.376-8.43-12.97q-5.836-3.891-11.673-1.946c-4.539,2.594-7.782,5.836-9.727,10.376a2.382,2.382,0,0,0-.648,1.945c1.3,5.188,2.594,10.376,7.133,13.618,5.188,3.891,12.321,5.836,17.509.648,1.945-1.3,3.242-1.945,5.188-1.3,1.945,1.3,4.539,1.3,7.133,1.945,1.945,0,3.891.648,5.188.648.648,0,1.3.648.648,1.3-1.945,2.594-2.594,5.836-3.242,9.079A21.953,21.953,0,0,0,52.483,9.758a27.759,27.759,0,0,0,10.376,9.079c1.945,1.3,2.594,1.3,1.3,2.594a22.411,22.411,0,0,0-6.485,13.618c-1.945,6.485-1.945,12.97,1.945,19.455C62.859,60.34,67.4,65.528,74.532,68.122a37.5,37.5,0,0,0,9.079,3.242c1.3.648,1.945,1.3,1.945,2.594,0,1.945.648,3.891.648,5.836a20.186,20.186,0,0,0,7.133,12.321,72.235,72.235,0,0,0,29.182,12.321c6.485,1.3,12.321,1.945,18.158,2.594a70.483,70.483,0,0,0,11.673-.648c3.242,0,5.836-.648,8.43-.648a70.615,70.615,0,0,0,20.1-5.188c3.891-1.3,7.782-3.242,12.321-4.539a2.852,2.852,0,0,1,3.242-.648c3.242.648,6.485.648,9.079,2.594,11.024,5.188,20.1,13.618,28.533,22.049a215.882,215.882,0,0,1,16.212,18.158c2.594,3.242,5.188,7.133,7.782,11.024l3.891,7.782,5.188,9.727c3.891,7.782,5.188,16.212,5.836,24.642.649,6.485.649,13.618,2.594,20.1a165.877,165.877,0,0,0,3.242,17.509c0,.648.648,1.945.648,3.242a78.652,78.652,0,0,1,3.242,9.079c1.945,3.891,3.242,7.782,5.188,11.024,2.594,3.242,4.539,7.133,7.133,10.376v1.3a2.008,2.008,0,0,1-1.3.648,47.769,47.769,0,0,1-9.079-2.594,75.4,75.4,0,0,1-11.673-2.594,181.323,181.323,0,0,0-26.588-8.43c-7.133-1.3-13.618-2.594-20.752-2.594a16.116,16.116,0,0,1-5.188-.648,24.315,24.315,0,0,0-7.133.648L194.5,252.292a133.792,133.792,0,0,0-22.7,7.782c-15.564,7.782-29.182,18.158-42.8,29.83-2.594,2.594-3.891,4.539-3.242,8.43.648,2.594,1.3,3.242,4.539,3.242,1.3-.648,1.945-1.3,3.242-1.3a41.219,41.219,0,0,1,11.673-3.891c7.782-.648,14.915.648,22.049,2.594l16.861,5.836a48.6,48.6,0,0,1,10.376,3.242,107.569,107.569,0,0,0,20.1,7.782c8.43,2.594,16.212,5.188,25.291,5.836,5.188,0,10.376.648,16.212,0,5.188,0,10.376-1.3,15.564-2.594,10.376-3.242,20.1-5.836,29.182-12.321a146.106,146.106,0,0,0,15.564-13.618c1.945-1.945,2.594-1.3,3.891,0,.648.648,1.3.648,1.3,1.3a90.223,90.223,0,0,0,24.643,16.212c.648,0,1.3.648,1.945.648a40.923,40.923,0,0,0,14.915,5.188l5.836,1.945,7.133,1.945c5.188,1.3,10.376,2.594,14.915,5.188a97.629,97.629,0,0,1,11.024,6.485c3.891,2.594,8.43,5.188,11.673,8.43q.973,1.945,3.891,1.945a146.569,146.569,0,0,0,16.861-.648,66.7,66.7,0,0,0,11.024-.648c2.594,0,3.242-1.3,3.242-4.539S447.411,330.11,445.466,326.868ZM121.223-120.588a5.605,5.605,0,0,1,1.945-3.891c1.3-1.945,3.242-3.891,5.836-3.242,3.242.649,5.836,1.945,6.485,5.188l.648,2.594c0,5.188-3.242,8.43-7.133,9.079C123.817-110.212,119.926-116.048,121.223-120.588ZM88.8-97.891c-1.945,1.945-3.891,1.3-6.485.649-5.836-1.3-7.133-9.727-5.836-11.024.648-.648.648-.648.648-1.3.648-2.594,5.188-3.242,7.782-3.242,3.891,0,5.836,1.945,7.133,5.836C92.689-103.727,91.392-99.188,88.8-97.891Zm44.746,12.97c3.891-2.594,7.782-5.836,12.97-5.836h2.594c3.891-.648,6.485,1.3,9.079,3.891a28.793,28.793,0,0,1,5.188,7.133,17.82,17.82,0,0,1,1.3,12.97,44.584,44.584,0,0,0-1.3,20.752c.648,4.539,1.3,8.43,1.945,12.97l1.945,7.133c.648,1.3.648,2.594-.648,3.242-1.945.649-1.945.649-3.891-.648-4.539-3.891-9.727-9.079-14.915-12.97a61.581,61.581,0,0,0-11.024-6.485c-1.945-.648-3.891-.648-5.836-1.3-3.242-.648-3.242-.648-3.891-3.891-.648-5.188-.648-10.376-1.3-16.212C125.114-71.951,129-78.436,133.544-84.921ZM175.7-74.545c4.539-6.485,11.024-10.376,20.1-10.376,2.594,0,4.539,1.3,6.485,3.242A32.888,32.888,0,0,1,208.12-71.3c2.594,6.485,3.242,13.618,5.188,20.752.648,1.3.648,1.945-.648,2.594l-1.945,3.891c-2.594,3.891-3.891,7.782-1.945,12.321s3.242,9.079,5.188,13.618c1.945,5.188,3.891,10.376,4.539,16.212a11.036,11.036,0,0,1-.648,4.539c-1.945,4.539-3.242,4.539-7.782,3.242-5.836-1.3-9.079-5.836-11.673-10.376-3.242-5.188-5.836-10.376-9.727-14.267a25.39,25.39,0,0,0-6.485-5.188l-4.539-1.945a4.32,4.32,0,0,1-4.539-3.242,151.341,151.341,0,0,1-3.891-22.7C169.211-60.278,171.156-68.06,175.7-74.545ZM50.538-64.818a3.9,3.9,0,0,1-2.594.649c-5.836,0-9.727-4.539-9.079-9.727.648-2.594,1.3-4.539,3.242-6.485,3.242-1.945,5.836-1.945,8.43-.648,3.891,1.945,5.188,4.539,5.188,8.43A7.819,7.819,0,0,1,50.538-64.818ZM437.684,335.946c-1.945.648-3.242,0-5.188,0H428.6a49.081,49.081,0,0,0-9.727.648,4.953,4.953,0,0,1-3.242-1.3,48.1,48.1,0,0,0-12.97-10.376,72.372,72.372,0,0,0-27.236-11.673,110.91,110.91,0,0,1-19.455-5.836,118.52,118.52,0,0,1-18.158-9.079c-4.539-3.242-9.079-5.836-12.321-10.376-3.891-4.539-9.079-3.891-13.618.648-5.188,4.539-10.376,9.727-16.212,13.618-5.836,4.539-12.321,6.485-19.455,8.43a68.4,68.4,0,0,1-15.564,3.891c-9.727,1.945-19.455,1.3-29.182-.648a175.378,175.378,0,0,1-31.127-10.376l-15.564-5.836-19.455-5.836c-3.242-1.3-6.485-1.3-10.376-1.3-2.594,0-5.836-.648-8.43-.648H143.92c-1.3.648-2.594.648-4.539.648.648-1.945,2.594-2.594,3.891-3.891,3.891-3.242,8.43-5.836,12.97-9.727,7.133-5.188,14.915-9.079,23.345-12.97,5.188-2.594,11.024-3.891,16.861-5.188,4.539-1.3,9.079-1.945,12.97-3.242a49.181,49.181,0,0,1,16.861-.648h3.242a134.189,134.189,0,0,1,27.885,6.485,128.094,128.094,0,0,1,16.861,5.188.635.635,0,0,1,.648.648c6.485,0,12.321,2.594,18.158,3.891a29.082,29.082,0,0,0,7.133.648c3.242,0,4.539-1.945,3.242-4.539a3.369,3.369,0,0,0-1.3-2.594c-1.3-2.594-2.594-6.485-5.188-9.079-3.242-3.891-4.539-8.43-6.485-12.97a118.585,118.585,0,0,1-5.188-16.212c-1.3-3.891-1.3-8.43-2.594-12.97-1.945-4.539-1.3-9.079-3.242-13.618v-3.242a124.953,124.953,0,0,1-.648-15.564,37.433,37.433,0,0,0-5.836-16.861c-2.594-3.891-4.539-8.43-6.485-12.321-5.188-9.727-5.188-10.376-12.97-19.455a178.094,178.094,0,0,1-14.267-16.861l-7.782-7.133c-5.188-5.188-11.673-9.727-17.509-13.618a36.05,36.05,0,0,0-11.024-5.836,21.427,21.427,0,0,0-9.079,0c-5.188.649-9.727,3.242-14.915,5.836-.648,0-1.3.648-2.594.648-7.133,1.945-14.915,3.242-22.7,4.539-8.43.648-16.861-.648-25.291-.648-2.594,0-5.188-1.3-8.43-1.945a12.022,12.022,0,0,0-4.539-1.3,56.222,56.222,0,0,1-17.509-9.079,11.94,11.94,0,0,1-5.188-11.673,4.953,4.953,0,0,1,1.3-3.242c1.3-1.945,2.594-3.242,5.188-2.594a31.223,31.223,0,0,1,15.564,4.539A48.335,48.335,0,0,0,132.9,81.091c5.188,1.3,11.024,1.3,15.564-1.945,3.242-1.3,5.188-3.891,6.485-7.133A8.03,8.03,0,0,0,153,62.934c-1.3-2.594-3.891-3.891-6.485-5.836A82.682,82.682,0,0,1,130.3,47.37c-2.594-2.594-5.836-5.188-7.782-8.43a16.683,16.683,0,0,1-.648-9.727c1.3-4.539,8.43-7.782,13.618-5.836a38.628,38.628,0,0,1,13.618,9.079,80.329,80.329,0,0,0,14.267,11.673,39.668,39.668,0,0,0,7.782,3.242,14.636,14.636,0,0,0,14.267-3.891,17.085,17.085,0,0,0,3.891-13.618,32.86,32.86,0,0,0-11.024-19.455A33.342,33.342,0,0,1,166.617-6.454c-1.945-4.539-.648-7.782,3.242-10.376.648,0,1.3-.648,1.945-.648,4.539-2.594,7.133-2.594,10.376,1.945a86.274,86.274,0,0,1,9.079,12.321C193.2.031,195.15,3.922,198.392,7.164a26,26,0,0,0,14.267,6.485,9.244,9.244,0,0,0,7.782-3.891C224.98,5.219,226.277-.618,224.98-7.1c-1.945-7.133-4.539-12.97-7.133-19.455-.649-2.594-1.945-5.188-2.594-7.782-1.3-3.891.648-8.43,4.539-9.727,2.594-1.3,4.539-.648,6.485,0A29.341,29.341,0,0,1,237.95-27.854c1.3,3.242,2.594,6.485,2.594,9.727.648,7.133,1.3,14.267,1.3,21.4a114.8,114.8,0,0,1-.648,14.915A88.792,88.792,0,0,1,230.817,51.91c-1.945,3.891-3.891,7.782-7.133,10.376-2.594,2.594-3.891,5.188-5.836,7.782-.649,1.3-.649,3.242.648,3.891.648,1.3,1.945.649,3.242.649,2.594-2.594,4.539-1.3,6.485.648a100.249,100.249,0,0,1,17.509,15.564l10.376,9.727a105.415,105.415,0,0,1,17.509,20.1l10.376,16.212c.648.648.648,1.3,1.3,1.3,2.594,1.945,4.539,1.945,5.836-.648a23.04,23.04,0,0,0,1.3-6.485,8.225,8.225,0,0,0,.648-3.891c-.648-8.43.648-16.212,1.945-23.994l3.891-16.861a68.955,68.955,0,0,1,7.782-22.049c1.945-3.891,5.188-7.782,7.782-11.673a64.734,64.734,0,0,1,14.267-15.564c3.891-3.242,7.782-5.836,12.321-9.079,5.188-3.242,10.376-6.485,15.564-9.079,9.727-5.188,17.509-11.673,26.588-16.861a11.385,11.385,0,0,0,3.242-2.594A124.489,124.489,0,0,0,396.181-9.7a70.793,70.793,0,0,1,8.43-11.024l1.945-3.242c1.3,1.3.648,2.594,1.3,3.891a2.382,2.382,0,0,1,.648,1.945c0,7.133,1.3,14.267,1.3,21.4a77.72,77.72,0,0,1-1.945,24.642c-1.3,3.891-1.3,8.43-2.594,12.321-1.3,5.188-2.594,10.376-5.188,15.564-2.594,5.836-4.539,11.673-7.782,16.861-1.945,5.188-5.188,9.727-7.782,14.915L376.726,97.3a144.335,144.335,0,0,1-17.509,16.861L350.787,120c-9.079,5.188-18.806,9.727-27.885,14.915-3.242,1.3-5.836,3.891-9.079,5.836-5.188,3.891-9.727,8.43-12.321,14.267-1.3,1.945-1.945,4.539-3.242,6.485a5.539,5.539,0,0,0,0,4.539c.648,4.539,1.3,9.079,1.945,14.267l1.945,7.782c0,2.594.648,4.539.648,6.485a103.43,103.43,0,0,0,4.539,24.642l7.782,22.049c1.945,4.539,4.539,9.727,8.43,12.97,5.188,7.782,12.321,12.97,18.806,18.806,6.485,5.188,13.618,8.43,20.752,11.673,8.43,4.539,17.509,5.836,25.939,8.43,7.782,2.594,15.564,4.539,22.7,9.079,6.485,3.891,13.618,8.43,18.806,14.267a65.479,65.479,0,0,1,8.43,10.376l1.945,4.539a9.218,9.218,0,0,1,1.3,3.891ZM108.9-25.26c1.3-3.242,3.242-6.485,5.836-8.43,4.539-3.242,8.43-5.188,13.618-3.891a33.013,33.013,0,0,1,18.806,9.727,112.726,112.726,0,0,1,9.727,8.43l1.945,1.945c1.3,1.3,1.3,1.945.648,3.891-1.3,2.594-.648,5.188,0,7.782,1.945,7.133,5.836,12.97,11.024,18.158l7.782,8.43a20.1,20.1,0,0,1,3.891,8.43c.648,1.3.648,2.594.648,4.539-.648,5.188-7.133,9.079-12.321,6.485-4.539-1.945-8.43-5.188-12.97-9.079a69.413,69.413,0,0,0-10.376-9.079c-4.539-3.891-10.376-6.485-16.212-5.836-.648,0-1.3-.648-1.945,0-3.242,1.945-5.188,0-7.133-1.945-2.594-2.594-4.539-5.188-7.133-7.782L109.55-.618c-3.242-3.242-3.242-8.43-3.891-11.673A25.541,25.541,0,0,1,108.9-25.26ZM24.6-22.018a11.633,11.633,0,0,1-4.539-3.242c-1.945-1.945-3.242-4.539-1.945-6.485A9.968,9.968,0,0,1,23.3-37.581c1.945-.648,3.891-.648,5.188.649,3.242,1.945,5.836,4.539,5.836,7.133C34.325-23.315,29.138-19.424,24.6-22.018ZM57.022,2.625c-1.3-8.43,1.945-15.564,9.727-20.752a25.316,25.316,0,0,1,18.158-2.594c3.891.648,7.133,1.945,10.376,2.594,2.594.648,3.242,2.594,3.891,4.539A36.721,36.721,0,0,0,101.12-1.915a26.778,26.778,0,0,0,4.539,7.133c3.891,4.539,7.133,9.727,11.024,13.618.648,0,.648.648.648,1.3-2.594-.648-4.539-1.945-7.133-2.594a58.886,58.886,0,0,0-25.939-3.891,19.186,19.186,0,0,0-6.485,1.3c-1.945.648-3.242,1.3-4.539.648C70.641,14.3,68.7,14.3,66.1,13,62.21,11.055,58.319,8.461,57.022,2.625ZM304.744,121.3a3.884,3.884,0,0,0,3.891-1.945l3.242-7.133c3.891-7.133,7.782-14.267,13.618-20.1a68.69,68.69,0,0,1,7.782-6.485,41.956,41.956,0,0,1,5.836-5.188c2.594-2.594,5.836-3.891,8.43-6.485l9.727-7.782c2.594-1.945,5.836-3.891,8.43-7.133,0-.648.649-.648,1.3-1.3,3.891-3.891,7.782-7.782,11.024-11.673a187.834,187.834,0,0,0,12.321-18.806c1.3-1.945,2.594-4.539,2.594-5.836.648-2.594,0-3.242-1.945-3.891-1.3-.648-1.945,0-3.242.648a14.175,14.175,0,0,1-1.945,3.242c-3.242,5.836-5.836,12.321-11.024,16.861a2.264,2.264,0,0,0-.648,1.3,14.176,14.176,0,0,1-1.945,3.242c-4.539,4.539-9.079,9.727-14.267,14.267-2.594,2.594-6.485,5.188-9.727,7.782L328.738,80.443a99.047,99.047,0,0,0-11.673,11.673c-5.188,5.836-8.43,12.97-11.673,19.455-1.3,1.3-1.945,3.242-2.594,5.188S302.8,120.649,304.744,121.3ZM91.392,64.879c-1.945.648-3.242,1.3-4.539.648-3.242-1.3-6.485-1.945-9.079-3.242-5.188-1.945-8.43-5.836-11.673-9.727-3.891-4.539-3.242-10.376-1.945-16.212,0-1.945.648-3.242,1.3-5.188,1.945-3.891,4.539-6.485,8.43-7.782,5.188-1.945,10.376-3.891,14.267-3.242,7.782.649,14.267,1.3,20.1,3.242l1.945,1.3c1.945.648,3.891,1.3,4.539,2.594,1.3,1.3,0,3.891,0,5.188.648,3.891,1.3,7.782,3.242,11.024,3.891,6.485,9.727,11.024,16.212,14.915a104.923,104.923,0,0,0,11.673,6.485l1.945,1.945a2.432,2.432,0,0,1,0,3.891c-2.594,4.539-7.133,4.539-11.673,3.891a44.12,44.12,0,0,1-20.1-7.133c-4.539-2.594-9.079-3.891-14.267-5.188A19.029,19.029,0,0,0,91.392,64.879ZM295.017,282.771a14.278,14.278,0,0,0-5.188-.648c-7.133,1.945-14.915,1.3-22.7.648-8.43-1.3-17.509-3.242-26.588-4.539-12.321-2.594-27.885-2.594-30.479-2.594L195.8,277.583a41.927,41.927,0,0,0-12.97,2.594,3.566,3.566,0,0,0-3.242,1.945c-.648,1.3-.648,1.945.649,2.594,1.945,1.945,3.891,1.3,5.836.648,5.188-1.3,10.376-2.594,16.212-1.945,1.3,0,2.594-.648,3.891-.648,2.594,0,5.836-.648,8.43-.648,4.539,0,8.43.648,12.97.648,7.782,1.3,16.212,1.945,23.994,3.242,10.376,1.945,20.752,4.539,31.127,3.891,3.891-.648,7.782-.648,11.673-1.3,1.945-.648,3.242-1.3,3.242-2.594S296.314,283.419,295.017,282.771Z" transform="translate(25.843 152.41)"/>
  </g>
</svg>
