<?xml version="1.0" encoding="utf-8"?>
<!-- Generator: Adobe Illustrator 26.3.1, SVG Export Plug-In . SVG Version: 6.00 Build 0)  -->
<svg version="1.1" id="Layer_1" xmlns="http://www.w3.org/2000/svg" xmlns:xlink="http://www.w3.org/1999/xlink" x="0px" y="0px"
	 viewBox="0 0 16 16" style="enable-background:new 0 0 16 16;" xml:space="preserve">
<style type="text/css">
	.st0{clip-path:url(#SVGID_00000075876576659184782280000002882970932651055520_);}
</style>
<g>
	<defs>
		<rect id="SVGID_1_" width="16" height="16"/>
	</defs>
	<clipPath id="SVGID_00000119828798191066419430000000976980435210175637_">
		<use xlink:href="#SVGID_1_"  style="overflow:visible;"/>
	</clipPath>
	<g id="Web_1920_2" style="clip-path:url(#SVGID_00000119828798191066419430000000976980435210175637_);">
		<path id="Path_1" d="M14.6,14.8c-0.2-0.3-0.4-0.6-0.7-0.8c-0.1-0.1-0.2-0.1-0.3-0.2c-0.1,0-0.1-0.1-0.2-0.1c-0.1,0-0.2,0-0.2-0.1
			c-0.1,0-0.2-0.1-0.3-0.1c-0.2-0.1-0.5-0.1-0.7-0.3l-0.3-0.1c-0.1,0-0.2-0.1-0.3-0.2c-0.1-0.1-0.2-0.1-0.2-0.2l-0.3-0.2
			c-0.1-0.1-0.2-0.2-0.3-0.4c-0.1-0.1-0.1-0.3-0.2-0.4c-0.1-0.3-0.2-0.7-0.3-1l-0.1-0.4c0,0,0-0.1,0-0.1c0-0.2-0.1-0.3-0.1-0.5
			c0,0,0-0.1,0-0.1c0-0.2,0.1-0.3,0.2-0.4C10.7,9.2,11,9.1,11.2,9c0.1,0,0.2-0.1,0.3-0.2c0.2-0.1,0.3-0.2,0.5-0.3l0.3-0.3l0.1-0.1
			L12.5,8c0.1-0.1,0.2-0.3,0.3-0.4c0.1-0.3,0.3-0.5,0.4-0.8c0.1-0.3,0.2-0.6,0.3-0.9l0-0.1c0-0.2,0.1-0.4,0.1-0.6c0-0.3,0-0.6,0-0.9
			l-0.1-0.5c0-0.1,0-0.2-0.1-0.2c0,0-0.1-0.1-0.1-0.1s-0.1,0-0.1,0.1c0,0,0,0,0,0.1c-0.1,0.3-0.2,0.5-0.4,0.7
			c-0.1,0.1-0.1,0.1-0.2,0.2l-0.1,0.1L12.1,5c-0.1,0.1-0.3,0.2-0.4,0.3c-0.1,0.1-0.3,0.1-0.4,0.2c0,0-0.1,0-0.1,0.1
			c0,0-0.1,0.1-0.1,0.1c-0.2,0.1-0.3,0.3-0.5,0.4c-0.1,0.2-0.2,0.3-0.3,0.5c-0.2,0.3-0.3,0.6-0.3,0.9c0,0.2-0.1,0.3-0.1,0.5
			c0,0.2-0.1,0.4-0.1,0.7v0.1c0,0,0,0,0,0C9.5,8.3,9.3,8.1,9,7.8L8.3,7.1C8.2,7.1,8.1,7,8,6.9c0-0.1,0-0.1,0-0.1
			c0.1-0.2,0.2-0.3,0.3-0.5c0,0,0,0,0-0.1c0-0.1,0.1-0.2,0.1-0.3c0-0.1,0-0.2,0.1-0.3c0-0.1,0-0.2,0.1-0.3c0-0.3,0-0.5,0-0.8
			c0-0.2,0-0.3,0-0.5C8.5,3.8,8.3,3.5,8.1,3.3C8,3.3,7.9,3.2,7.8,3.2c0,0-0.1,0-0.1-0.1c0,0,0,0,0,0c0,0,0,0,0,0
			C7.6,2.9,7.5,2.7,7.5,2.5C7.4,2.3,7.3,2.2,7.2,2.1C7.1,2,6.9,1.9,6.8,2C6.6,2,6.5,2.1,6.4,2.1c-0.1,0-0.2,0.1-0.2,0.2c0,0,0,0,0,0
			C6.1,2.1,6,2,5.9,1.9C5.8,1.8,5.7,1.8,5.6,1.8H5.3c-0.1,0-0.1,0-0.2,0.1C5,1.9,4.9,2,4.8,2.1c0,0,0,0,0,0v0h0v0h0c0,0,0-0.1,0-0.1
			c0-0.1,0-0.2,0.1-0.3c0-0.1,0.1-0.1,0.2-0.1c0.1,0,0.2-0.1,0.2-0.1C5.3,1.3,5.3,1.2,5.3,1c0-0.1-0.1-0.2-0.2-0.3
			C4.9,0.6,4.7,0.6,4.5,0.8c0,0,0,0,0,0.1c-0.1,0.2,0,0.5,0.1,0.6c0.1,0,0.1,0,0,0.1C4.6,1.8,4.5,2,4.6,2.1c0,0.1,0,0.1,0,0.2
			c0,0.1,0,0.2,0,0.3c0,0.1,0,0.1,0,0.2c0,0.2,0,0.4,0,0.5v0.1c0,0,0,0,0,0c0,0,0,0,0,0h0C4.5,3.3,4.4,3.2,4.3,3.2
			C4.2,3.1,4.2,2.9,4.1,2.8L4.1,2.5c0-0.2-0.1-0.4-0.2-0.5c0,0,0-0.1,0-0.1C4,1.6,4,1.4,3.8,1.2c0,0,0,0-0.1-0.1
			c-0.2-0.1-0.4-0.1-0.5,0C3.2,1.3,3.1,1.3,3.1,1.4c0,0.1,0,0.2,0,0.2C3.1,1.9,3.3,2,3.6,2c0,0,0,0,0,0h0c0,0,0.1,0,0.1,0
			c0.1,0.1,0.1,0.2,0.1,0.3l0.1,0.4C3.9,3,4,3.2,4.2,3.3c0.1,0,0.1,0.1,0.1,0.1l0.1,0.1v0l-0.1,0c0,0-0.1,0-0.1,0c0,0,0,0-0.1,0
			C4,3.5,3.9,3.5,3.8,3.4c-0.1,0-0.3-0.1-0.4-0.1C3.1,3.3,2.9,3.2,2.8,3c0-0.1-0.1-0.1,0-0.2c0.1-0.1,0.1-0.3,0.1-0.4
			C2.8,2.2,2.6,2.1,2.4,2.1C2.2,2.1,2.1,2.1,2,2.3C1.9,2.5,1.9,2.7,2,2.8C2.1,3,2.3,3.1,2.4,3c0.1,0,0.2,0,0.2,0.1l0.1,0.1
			c0.2,0.2,0.4,0.3,0.6,0.4c0.2,0,0.3,0,0.5,0.1c0.1,0,0.2,0.1,0.3,0.1c0,0,0,0,0,0c0,0,0,0,0,0C4.1,3.9,4.1,4,4,4.1c0,0,0,0,0,0
			C3.8,4,3.7,4,3.5,3.9c-0.2,0-0.4,0-0.6,0.1c0,0-0.1,0-0.1,0c-0.2,0-0.3,0-0.5,0C2.3,4,2.2,4,2.2,3.9c0-0.2-0.1-0.3-0.3-0.4
			C1.8,3.4,1.7,3.4,1.6,3.4C1.5,3.5,1.4,3.6,1.3,3.8c0,0,0,0,0,0.1c0,0.2,0.1,0.3,0.2,0.4c0.1,0.1,0.4,0.2,0.5,0c0,0,0.1-0.1,0.2,0
			c0.1,0,0.1,0.1,0.2,0.1c0.1,0,0.1,0,0.2,0c0,0,0,0,0,0C2.5,4.4,2.5,4.5,2.5,4.6c0,0.2,0,0.3,0.1,0.5c0.1,0.1,0.2,0.2,0.3,0.3
			c0.1,0,0.1,0,0,0.1C2.8,5.6,2.7,5.7,2.7,5.9c-0.1,0.2,0,0.4,0.1,0.6C2.9,6.7,3,6.8,3.2,6.9C3.3,6.9,3.4,7,3.5,7c0,0,0.1,0,0.1,0.1
			c0,0.1,0,0.1,0,0.2c0,0.1,0.1,0.3,0.2,0.4C4.1,7.8,4.4,7.9,4.7,8c0.2,0,0.4,0.1,0.6,0.1c0.1,0,0.2,0,0.4,0c0.1,0,0.2,0,0.3,0
			C6.1,8,6.3,8,6.5,7.9c0.1,0,0.2-0.1,0.4-0.1c0,0,0.1,0,0.1,0c0.1,0,0.2,0,0.3,0.1C7.6,8,7.9,8.2,8.1,8.5C8.3,8.7,8.5,8.8,8.6,9
			c0.1,0.1,0.2,0.2,0.2,0.3L9,9.6l0.2,0.3c0.1,0.2,0.2,0.5,0.2,0.8c0,0.2,0,0.4,0.1,0.6c0,0.2,0.1,0.4,0.1,0.5c0,0,0,0.1,0,0.1
			c0,0.1,0.1,0.2,0.1,0.3c0.1,0.1,0.1,0.2,0.2,0.3c0.1,0.1,0.1,0.2,0.2,0.3v0c0,0,0,0,0,0c-0.1,0-0.2,0-0.3-0.1
			c-0.1,0-0.2,0-0.4-0.1c-0.3-0.1-0.5-0.2-0.8-0.3c-0.2,0-0.4-0.1-0.6-0.1c-0.1,0-0.1,0-0.2,0c-0.1,0-0.1,0-0.2,0l-0.6,0.1
			c-0.2,0.1-0.5,0.1-0.7,0.2c-0.5,0.2-0.9,0.6-1.3,0.9c-0.1,0.1-0.1,0.2-0.1,0.3c0,0.1,0,0.1,0.1,0.1C5,14,5,14,5,14
			c0.1-0.1,0.2-0.1,0.4-0.1c0.2,0,0.5,0,0.7,0.1l0.5,0.2c0.1,0,0.2,0.1,0.3,0.1c0.2,0.1,0.4,0.2,0.6,0.2c0.3,0.1,0.5,0.2,0.8,0.2
			c0.2,0,0.3,0,0.5,0c0.2,0,0.3,0,0.5-0.1c0.3-0.1,0.6-0.2,0.9-0.4c0.2-0.1,0.3-0.3,0.5-0.4c0.1-0.1,0.1,0,0.1,0c0,0,0,0,0,0
			c0.2,0.2,0.5,0.4,0.8,0.5c0,0,0,0,0.1,0c0.1,0.1,0.3,0.1,0.5,0.2l0.2,0.1l0.2,0.1c0.2,0,0.3,0.1,0.5,0.2c0.1,0.1,0.2,0.1,0.3,0.2
			c0.1,0.1,0.2,0.2,0.4,0.3c0,0,0.1,0.1,0.1,0.1c0.2,0,0.3,0,0.5,0c0.1,0,0.2,0,0.3,0c0.1,0,0.1,0,0.1-0.1
			C14.7,15,14.7,14.9,14.6,14.8z M4.7,1.1c0,0,0-0.1,0.1-0.1c0-0.1,0.1-0.1,0.2-0.1C5,0.9,5.1,0.9,5.1,1l0,0.1
			c0,0.1-0.1,0.3-0.2,0.3C4.8,1.4,4.7,1.3,4.7,1.1C4.7,1.1,4.7,1.1,4.7,1.1L4.7,1.1z M3.7,1.8c-0.1,0.1-0.1,0-0.2,0
			c-0.1,0-0.2-0.2-0.2-0.3c0,0,0,0,0,0c0-0.1,0.2-0.1,0.2-0.1c0.1,0,0.2,0.1,0.2,0.2C3.8,1.6,3.8,1.7,3.7,1.8L3.7,1.8z M5,2.2
			C5.1,2.1,5.3,2,5.4,2h0.1c0.1,0,0.2,0,0.3,0.1C5.9,2.2,5.9,2.3,6,2.4C6,2.5,6,2.6,6,2.8C5.9,3,5.9,3.2,6,3.4C6,3.5,6,3.7,6,3.8
			L6.1,4c0,0,0,0.1,0,0.1c-0.1,0-0.1,0-0.1,0C5.8,4,5.6,3.8,5.5,3.7C5.4,3.6,5.3,3.6,5.1,3.5c-0.1,0-0.1,0-0.2,0
			c-0.1,0-0.1,0-0.1-0.1c0-0.2,0-0.3,0-0.5C4.8,2.6,4.9,2.4,5,2.2L5,2.2z M6.3,2.5c0.1-0.2,0.4-0.3,0.6-0.3c0.1,0,0.2,0,0.2,0.1
			c0.1,0.1,0.1,0.2,0.2,0.3C7.4,2.8,7.4,3,7.5,3.3c0,0,0,0.1,0,0.1L7.4,3.5C7.3,3.6,7.3,3.7,7.3,3.8C7.4,4,7.4,4.1,7.5,4.3
			c0.1,0.2,0.1,0.3,0.1,0.5c0,0,0,0.1,0,0.1C7.6,5,7.5,5,7.4,5C7.2,4.9,7.1,4.8,7,4.7C6.9,4.5,6.8,4.4,6.7,4.2
			C6.7,4.2,6.6,4.1,6.5,4.1L6.4,4C6.3,4,6.3,4,6.3,3.9C6.2,3.7,6.2,3.5,6.1,3.2C6.1,3,6.2,2.7,6.3,2.5L6.3,2.5z M2.5,2.8
			C2.5,2.8,2.4,2.8,2.5,2.8c-0.2,0-0.4-0.1-0.4-0.2c0,0,0,0,0,0c0-0.1,0-0.1,0.1-0.2c0.1-0.1,0.2-0.1,0.3,0c0.1,0,0.2,0.1,0.2,0.3
			C2.7,2.7,2.6,2.8,2.5,2.8L2.5,2.8z M14.4,15.1c-0.1,0-0.1,0-0.2,0h-0.1c-0.1,0-0.2,0-0.3,0c0,0-0.1,0-0.1,0
			c-0.1-0.1-0.2-0.2-0.4-0.3c-0.3-0.2-0.5-0.3-0.8-0.4c-0.2,0-0.4-0.1-0.6-0.2c-0.2-0.1-0.4-0.2-0.6-0.3c-0.1-0.1-0.3-0.2-0.4-0.3
			c-0.1-0.1-0.3-0.1-0.4,0c-0.2,0.1-0.3,0.3-0.5,0.4c-0.2,0.1-0.4,0.2-0.6,0.3c-0.2,0.1-0.3,0.1-0.5,0.1c-0.3,0.1-0.6,0-0.9,0
			c-0.3-0.1-0.6-0.2-1-0.3L6.6,14L6,13.8c-0.1,0-0.2,0-0.3,0c-0.1,0-0.2,0-0.3,0H5.3c0,0-0.1,0-0.1,0c0-0.1,0.1-0.1,0.1-0.1
			c0.1-0.1,0.3-0.2,0.4-0.3c0.2-0.2,0.5-0.3,0.7-0.4c0.2-0.1,0.3-0.1,0.5-0.2c0.1,0,0.3-0.1,0.4-0.1c0.2,0,0.3,0,0.5,0H8
			c0.3,0,0.6,0.1,0.9,0.2c0.2,0,0.3,0.1,0.5,0.2c0,0,0,0,0,0c0.2,0,0.4,0.1,0.6,0.1c0.1,0,0.1,0,0.2,0c0.1,0,0.1-0.1,0.1-0.1
			c0,0,0-0.1,0-0.1c0-0.1-0.1-0.2-0.2-0.3c-0.1-0.1-0.2-0.3-0.2-0.4c-0.1-0.2-0.1-0.3-0.2-0.5c0-0.1,0-0.3-0.1-0.4
			c-0.1-0.1,0-0.3-0.1-0.4v-0.1c0-0.2,0-0.3,0-0.5c0-0.2-0.1-0.4-0.2-0.5C9.2,9.7,9.2,9.6,9.1,9.5C9,9.2,8.9,9,8.7,8.9
			C8.5,8.7,8.4,8.5,8.3,8.3L8,8.1C7.9,8,7.7,7.8,7.5,7.7C7.4,7.6,7.3,7.6,7.2,7.5c-0.1,0-0.2,0-0.3,0c-0.2,0-0.3,0.1-0.5,0.2
			c0,0,0,0-0.1,0C6.1,7.8,5.9,7.8,5.6,7.9c-0.3,0-0.5,0-0.8,0c-0.1,0-0.2,0-0.3-0.1c0,0-0.1,0-0.1,0C4.3,7.7,4.1,7.6,3.9,7.5
			C3.8,7.4,3.7,7.3,3.8,7.1c0,0,0-0.1,0-0.1C3.8,7,3.9,6.9,4,6.9c0.2,0,0.3,0.1,0.5,0.1C4.6,7.2,4.8,7.3,5,7.3
			c0.2,0.1,0.3,0,0.5-0.1c0.1,0,0.2-0.1,0.2-0.2c0-0.1,0-0.2-0.1-0.3c0-0.1-0.1-0.1-0.2-0.2C5.2,6.5,5.1,6.4,4.9,6.3
			C4.8,6.2,4.7,6.1,4.7,6c0-0.1,0-0.2,0-0.3c0.1-0.2,0.3-0.2,0.4-0.2c0.2,0.1,0.3,0.2,0.4,0.3c0.1,0.1,0.3,0.3,0.4,0.4
			c0.1,0,0.2,0.1,0.2,0.1c0.2,0,0.3,0,0.4-0.1C6.7,6,6.7,5.9,6.7,5.7c0-0.2-0.2-0.4-0.3-0.6C6.2,5,6.1,4.8,6,4.6
			C6,4.5,6,4.3,6.1,4.3c0,0,0,0,0,0c0,0,0,0,0.1,0c0.1-0.1,0.2-0.1,0.3,0.1c0.1,0.1,0.2,0.2,0.3,0.4C6.8,4.8,6.9,4.9,7,5
			c0.1,0.1,0.3,0.2,0.4,0.2c0.1,0,0.2,0,0.2-0.1C7.8,5,7.9,4.8,7.8,4.6C7.8,4.4,7.7,4.2,7.6,4c0-0.1-0.1-0.2-0.1-0.2
			c0-0.1,0-0.3,0.1-0.3c0.1,0,0.1,0,0.2,0C8,3.6,8.2,3.7,8.2,3.9c0,0.1,0.1,0.2,0.1,0.3c0,0.2,0,0.4,0,0.7c0,0.2,0,0.3,0,0.5
			c0,0.4-0.1,0.7-0.3,1c0,0.1-0.1,0.2-0.2,0.3C7.7,6.8,7.7,6.9,7.6,6.9c0,0,0,0.1,0,0.1c0,0,0.1,0,0.1,0c0.1-0.1,0.1,0,0.2,0
			c0.2,0.1,0.4,0.3,0.5,0.5l0.3,0.3C9,8.1,9.2,8.3,9.3,8.5L9.6,9c0,0,0,0,0,0c0.1,0.1,0.1,0.1,0.2,0c0-0.1,0-0.1,0-0.2
			c0,0,0-0.1,0-0.1c0-0.2,0-0.5,0.1-0.7l0.1-0.5c0-0.2,0.1-0.5,0.2-0.7c0.1-0.1,0.2-0.2,0.2-0.4c0.1-0.2,0.3-0.3,0.4-0.5
			c0.1-0.1,0.2-0.2,0.4-0.3c0.2-0.1,0.3-0.2,0.5-0.3c0.3-0.2,0.5-0.4,0.8-0.5c0,0,0.1,0,0.1-0.1c0.1-0.1,0.2-0.2,0.3-0.3
			c0.1-0.1,0.2-0.2,0.3-0.3l0.1-0.1c0,0,0,0.1,0,0.1c0,0,0,0,0,0.1c0,0.2,0,0.4,0,0.7c0,0.3,0,0.5-0.1,0.8c0,0.1,0,0.3-0.1,0.4
			c0,0.2-0.1,0.3-0.2,0.5C13.1,6.7,13.1,6.9,13,7c-0.1,0.2-0.2,0.3-0.2,0.5l-0.2,0.3c-0.2,0.2-0.3,0.4-0.5,0.5l-0.3,0.2
			c-0.3,0.2-0.6,0.3-0.9,0.5c-0.1,0.1-0.2,0.1-0.3,0.2c-0.2,0.1-0.3,0.3-0.4,0.4c0,0.1-0.1,0.1-0.1,0.2c0,0,0,0.1,0,0.1
			c0,0.1,0,0.3,0.1,0.4l0.1,0.2c0,0.1,0,0.1,0,0.2c0,0.3,0.1,0.5,0.1,0.8l0.2,0.7c0.1,0.2,0.1,0.3,0.3,0.4c0.2,0.2,0.4,0.4,0.6,0.6
			c0.2,0.1,0.4,0.3,0.6,0.4c0.3,0.1,0.5,0.2,0.8,0.3c0.2,0.1,0.5,0.2,0.7,0.3c0.2,0.1,0.4,0.3,0.6,0.4c0.1,0.1,0.2,0.2,0.3,0.3
			l0.1,0.1c0,0,0,0.1,0,0.1L14.4,15.1z M4.3,4c0-0.1,0.1-0.2,0.2-0.3c0.1-0.1,0.3-0.1,0.4-0.1c0.2,0,0.4,0.1,0.6,0.3
			C5.6,4,5.7,4.1,5.8,4.2l0.1,0.1c0,0,0,0.1,0,0.1c0,0.1,0,0.2,0,0.2C5.9,4.9,6,5,6.2,5.2l0.2,0.3c0.1,0.1,0.1,0.2,0.1,0.3
			c0,0,0,0.1,0,0.1c0,0.1-0.2,0.2-0.3,0.2c0,0,0,0-0.1,0C6,6,5.9,5.9,5.8,5.8C5.7,5.7,5.6,5.6,5.5,5.5C5.3,5.4,5.1,5.3,5,5.3
			c0,0,0,0-0.1,0c-0.1,0.1-0.2,0-0.2-0.1C4.6,5.2,4.5,5.1,4.5,5L4.3,4.8C4.2,4.7,4.2,4.6,4.2,4.4C4.2,4.3,4.2,4.2,4.3,4L4.3,4z
			 M1.7,4.1C1.6,4.1,1.6,4.1,1.5,4C1.5,4,1.4,3.9,1.5,3.8c0-0.1,0.1-0.1,0.2-0.2c0.1,0,0.1,0,0.2,0C1.9,3.7,2,3.8,2,3.9
			C2,4.1,1.8,4.2,1.7,4.1L1.7,4.1z M2.7,4.9c0-0.3,0.1-0.5,0.3-0.6c0.2-0.1,0.4-0.1,0.6-0.1c0.1,0,0.2,0.1,0.3,0.1
			C3.9,4.3,4,4.3,4,4.4C4,4.5,4,4.6,4,4.8c0,0.1,0.1,0.2,0.1,0.2c0.1,0.1,0.2,0.3,0.3,0.4c0,0,0,0,0,0c-0.1,0-0.1-0.1-0.2-0.1
			C4.1,5.3,3.8,5.2,3.5,5.2c-0.1,0-0.1,0-0.2,0c-0.1,0-0.1,0-0.1,0C3.1,5.3,3,5.3,3,5.2C2.8,5.2,2.7,5,2.7,4.9L2.7,4.9z M10.3,8.5
			c0,0,0.1,0,0.1-0.1l0.1-0.2c0.1-0.2,0.2-0.4,0.4-0.6c0.1-0.1,0.2-0.1,0.2-0.2c0.1-0.1,0.1-0.1,0.2-0.2c0.1-0.1,0.2-0.1,0.3-0.2
			l0.3-0.2c0.1-0.1,0.2-0.1,0.3-0.2c0,0,0,0,0,0c0.1-0.1,0.2-0.2,0.3-0.4c0.1-0.2,0.3-0.4,0.4-0.6C13,5.6,13,5.5,13,5.5
			c0-0.1,0-0.1-0.1-0.1c0,0-0.1,0-0.1,0c0,0,0,0.1-0.1,0.1c-0.1,0.2-0.2,0.4-0.3,0.5c0,0,0,0,0,0c0,0,0,0.1-0.1,0.1
			c-0.1,0.1-0.3,0.3-0.4,0.4c-0.1,0.1-0.2,0.2-0.3,0.2L11,7.3c-0.1,0.1-0.2,0.2-0.4,0.4c-0.1,0.2-0.3,0.4-0.4,0.6
			c0,0-0.1,0.1-0.1,0.2C10.2,8.4,10.2,8.5,10.3,8.5C10.3,8.5,10.3,8.5,10.3,8.5z M3.7,6.8c-0.1,0-0.1,0-0.1,0
			c-0.1,0-0.2-0.1-0.3-0.1C3.2,6.7,3.1,6.5,3,6.4C2.9,6.3,2.9,6.1,2.9,5.9c0-0.1,0-0.1,0-0.2c0-0.1,0.1-0.2,0.3-0.2
			c0.1-0.1,0.3-0.1,0.4-0.1c0.2,0,0.4,0,0.6,0.1l0.1,0c0.1,0,0.1,0,0.1,0.1c0,0,0,0.1,0,0.2c0,0.1,0,0.2,0.1,0.3
			c0.1,0.2,0.3,0.3,0.5,0.5c0.1,0.1,0.2,0.1,0.4,0.2l0.1,0.1c0,0,0,0.1,0,0.1c0,0,0,0,0,0C5.4,7.1,5.3,7.1,5.1,7.1
			C4.9,7.1,4.7,7,4.5,6.9C4.4,6.8,4.2,6.7,4.1,6.7C4,6.7,3.8,6.7,3.7,6.8z M10,13.5c-0.1,0-0.1,0-0.2,0c-0.2,0-0.5,0.1-0.7,0
			c-0.3,0-0.5-0.1-0.8-0.1c-0.3-0.1-0.6-0.1-0.9-0.1l-0.4,0.1c-0.1,0-0.3,0-0.4,0.1c0,0-0.1,0-0.1,0.1c0,0,0,0.1,0,0.1
			c0.1,0.1,0.1,0,0.2,0c0.2-0.1,0.3-0.1,0.5-0.1c0,0,0.1,0,0.1,0c0.1,0,0.2,0,0.3,0c0.1,0,0.3,0,0.4,0c0.2,0,0.5,0.1,0.7,0.1
			c0.3,0.1,0.6,0.1,1,0.1c0.1,0,0.2,0,0.4,0c0.1,0,0.1,0,0.1-0.1C10.1,13.6,10,13.5,10,13.5z"/>
	</g>
</g>
</svg>
